<svg width="66" height="66" xmlns="http://www.w3.org/2000/svg" xmlns:xlink="http://www.w3.org/1999/xlink"><defs><linearGradient x1="50%" y1="0%" x2="50%" y2="100%" id="b"><stop stop-color="#61747B" offset="0%"/><stop stop-color="#4C5769" offset="100%"/></linearGradient><linearGradient x1="50%" y1="0%" x2="50%" y2="100%" id="a"><stop stop-color="#6A7888" offset="0%"/><stop stop-color="#3E4853" offset="100%"/></linearGradient><linearGradient x1="50%" y1="0%" x2="50%" y2="100%" id="e"><stop stop-color="#C5D6DE" offset="0%"/><stop stop-color="#EBF1F2" offset="100%"/></linearGradient><filter x="-5.6%" y="-9.4%" width="111.1%" height="112.5%" filterUnits="objectBoundingBox" id="c"><feOffset dy="-1" in="SourceAlpha" result="shadowOffsetOuter1"/><feGaussianBlur stdDeviation=".5" in="shadowOffsetOuter1" result="shadowBlurOuter1"/><feColorMatrix values="0 0 0 0 0 0 0 0 0 0 0 0 0 0 0 0 0 0 0.15 0" in="shadowBlurOuter1"/></filter><filter x="-8.3%" y="-12.5%" width="116.7%" height="118.8%" filterUnits="objectBoundingBox" id="f"><feGaussianBlur stdDeviation="1" in="SourceAlpha" result="shadowBlurInner1"/><feOffset dy="2" in="shadowBlurInner1" result="shadowOffsetInner1"/><feComposite in="shadowOffsetInner1" in2="SourceAlpha" operator="arithmetic" k2="-1" k3="1" result="shadowInnerInner1"/><feColorMatrix values="0 0 0 0 0 0 0 0 0 0 0 0 0 0 0 0 0 0 0.15 0" in="shadowInnerInner1"/></filter><path d="M19.23 48.752a2.23 2.23 0 002.343-.186l9.221-6.765v4.925c0 .855.475 1.638 1.23 2.026.75.388 1.66.317 2.343-.186L53.072 34.84A2.279 2.279 0 0054 33.001a2.28 2.28 0 00-.928-1.84L34.367 17.434a2.233 2.233 0 00-2.344-.186 2.277 2.277 0 00-1.229 2.025V24.2l-9.22-6.766a2.229 2.229 0 00-2.344-.186A2.277 2.277 0 0018 19.273v27.453c0 .855.476 1.638 1.23 2.026z" id="d"/></defs><g fill="none" fill-rule="evenodd"><circle stroke="url(#a)" fill="url(#b)" cx="33" cy="33" r="32.5"/><use fill="#000" filter="url(#c)" xlink:href="#d"/><use fill="url(#e)" xlink:href="#d"/><use fill="#000" filter="url(#f)" xlink:href="#d"/></g></svg>