<svg width="66" height="66" xmlns="http://www.w3.org/2000/svg" xmlns:xlink="http://www.w3.org/1999/xlink"><defs><linearGradient x1="50%" y1="0%" x2="50%" y2="100%" id="b"><stop stop-color="#61747B" offset="0%"/><stop stop-color="#4C5769" offset="100%"/></linearGradient><linearGradient x1="50%" y1="0%" x2="50%" y2="100%" id="a"><stop stop-color="#6A7888" offset="0%"/><stop stop-color="#3E4853" offset="100%"/></linearGradient><linearGradient x1="50%" y1="0%" x2="50%" y2="100%" id="e"><stop stop-color="#C5D6DE" offset="0%"/><stop stop-color="#EBF1F2" offset="100%"/></linearGradient><filter x="-5.6%" y="-9.4%" width="111.1%" height="112.5%" filterUnits="objectBoundingBox" id="c"><feOffset dy="-1" in="SourceAlpha" result="shadowOffsetOuter1"/><feGaussianBlur stdDeviation=".5" in="shadowOffsetOuter1" result="shadowBlurOuter1"/><feColorMatrix values="0 0 0 0 0 0 0 0 0 0 0 0 0 0 0 0 0 0 0.15 0" in="shadowBlurOuter1"/></filter><filter x="-8.3%" y="-12.5%" width="116.7%" height="118.8%" filterUnits="objectBoundingBox" id="f"><feGaussianBlur stdDeviation="1" in="SourceAlpha" result="shadowBlurInner1"/><feOffset dy="2" in="shadowBlurInner1" result="shadowOffsetInner1"/><feComposite in="shadowOffsetInner1" in2="SourceAlpha" operator="arithmetic" k2="-1" k3="1" result="shadowInnerInner1"/><feColorMatrix values="0 0 0 0 0 0 0 0 0 0 0 0 0 0 0 0 0 0 0.15 0" in="shadowInnerInner1"/></filter><path d="M47.769 17.247a2.231 2.231 0 00-2.344.188l-9.22 6.763v-4.924c0-.855-.475-1.638-1.23-2.027a2.23 2.23 0 00-2.343.188L13.928 31.159A2.28 2.28 0 0013 33c0 .727.344 1.41.928 1.84l18.704 13.726a2.233 2.233 0 002.344.186 2.276 2.276 0 001.23-2.025V41.8l9.22 6.766a2.23 2.23 0 002.344.185A2.275 2.275 0 0049 46.727V19.274a2.283 2.283 0 00-1.231-2.027z" id="d"/></defs><g fill="none" fill-rule="evenodd"><circle stroke="url(#a)" fill="url(#b)" cx="33" cy="33" r="32.5"/><use fill="#000" filter="url(#c)" xlink:href="#d"/><use fill="url(#e)" xlink:href="#d"/><use fill="#000" filter="url(#f)" xlink:href="#d"/></g></svg>