<?xml version="1.0" encoding="UTF-8"?>
<svg width="88px" height="88px" viewBox="0 0 88 88" version="1.1" xmlns="http://www.w3.org/2000/svg" xmlns:xlink="http://www.w3.org/1999/xlink">
    <!-- Generator: Sketch 53.2 (72643) - https://sketchapp.com -->
    <title>Group Copy</title>
    <desc>Created with Sketch.</desc>
    <defs>
        <linearGradient x1="50%" y1="0%" x2="50%" y2="100%" id="linearGradient-1">
            <stop stop-color="#61747B" offset="0%"></stop>
            <stop stop-color="#4C5769" offset="100%"></stop>
        </linearGradient>
        <linearGradient x1="50%" y1="0%" x2="50%" y2="100%" id="linearGradient-2">
            <stop stop-color="#6A7888" offset="0%"></stop>
            <stop stop-color="#3E4853" offset="100%"></stop>
        </linearGradient>
        <linearGradient x1="50%" y1="0%" x2="50%" y2="100%" id="linearGradient-3">
            <stop stop-color="#C5D6DE" offset="0%"></stop>
            <stop stop-color="#EBF1F2" offset="100%"></stop>
        </linearGradient>
        <path d="M36.1428571,66 L26.7142857,66 C24.1116071,66 22,63.8883929 22,61.2857143 L22,26.7142857 C22,24.1116071 24.1116071,22 26.7142857,22 L36.1428571,22 C38.7455357,22 40.8571429,24.1116071 40.8571429,26.7142857 L40.8571429,61.2857143 C40.8571429,63.8883929 38.7455357,66 36.1428571,66 Z M66,61.2857143 L66,26.7142857 C66,24.1116071 63.8883929,22 61.2857143,22 L51.8571429,22 C49.2544643,22 47.1428571,24.1116071 47.1428571,26.7142857 L47.1428571,61.2857143 C47.1428571,63.8883929 49.2544643,66 51.8571429,66 L61.2857143,66 C63.8883929,66 66,63.8883929 66,61.2857143 Z" id="path-4"></path>
        <filter x="-4.5%" y="-6.8%" width="109.1%" height="109.1%" filterUnits="objectBoundingBox" id="filter-5">
            <feOffset dx="0" dy="-1" in="SourceAlpha" result="shadowOffsetOuter1"></feOffset>
            <feGaussianBlur stdDeviation="0.5" in="shadowOffsetOuter1" result="shadowBlurOuter1"></feGaussianBlur>
            <feColorMatrix values="0 0 0 0 0   0 0 0 0 0   0 0 0 0 0  0 0 0 0.15 0" type="matrix" in="shadowBlurOuter1"></feColorMatrix>
        </filter>
        <filter x="-6.8%" y="-9.1%" width="113.6%" height="113.6%" filterUnits="objectBoundingBox" id="filter-6">
            <feGaussianBlur stdDeviation="1" in="SourceAlpha" result="shadowBlurInner1"></feGaussianBlur>
            <feOffset dx="0" dy="2" in="shadowBlurInner1" result="shadowOffsetInner1"></feOffset>
            <feComposite in="shadowOffsetInner1" in2="SourceAlpha" operator="arithmetic" k2="-1" k3="1" result="shadowInnerInner1"></feComposite>
            <feColorMatrix values="0 0 0 0 0   0 0 0 0 0   0 0 0 0 0  0 0 0 0.15 0" type="matrix" in="shadowInnerInner1"></feColorMatrix>
        </filter>
    </defs>
    <g id="Page-1" stroke="none" stroke-width="1" fill="none" fill-rule="evenodd">
        <g id="controls">
            <g id="Group-Copy">
                <circle id="Oval-2" stroke="url(#linearGradient-2)" fill="url(#linearGradient-1)" cx="44" cy="44" r="43.5"></circle>
                <g id="Shape">
                    <use fill="black" fill-opacity="1" filter="url(#filter-5)" xlink:href="#path-4"></use>
                    <use fill="url(#linearGradient-3)" fill-rule="evenodd" xlink:href="#path-4"></use>
                    <use fill="black" fill-opacity="1" filter="url(#filter-6)" xlink:href="#path-4"></use>
                </g>
            </g>
        </g>
    </g>
</svg>